<?xml version="1.0"?>
<!-- Generated by SVGo -->
<svg width="730" height="1250"
     xmlns="http://www.w3.org/2000/svg"
     xmlns:xlink="http://www.w3.org/1999/xlink">
<rect x="10" y="191" width="50" height="9" style="fill:rgb(77,200,232)" />
<text x="33" y="220" style="text-anchor:middle;font-size:20px;fill:rgb(0,0,0)" >Jan</text>
<rect x="70" y="100" width="50" height="100" style="fill:rgb(77,200,232)" />
<text x="93" y="220" style="text-anchor:middle;font-size:20px;fill:rgb(0,0,0)" >Feb</text>
<rect x="130" y="194" width="50" height="6" style="fill:rgb(77,200,232)" />
<text x="153" y="220" style="text-anchor:middle;font-size:20px;fill:rgb(0,0,0)" >Mar</text>
<rect x="190" y="86" width="50" height="114" style="fill:rgb(77,200,232)" />
<text x="213" y="220" style="text-anchor:middle;font-size:20px;fill:rgb(0,0,0)" >Apr</text>
<rect x="250" y="30" width="50" height="170" style="fill:rgb(77,200,232)" />
<text x="273" y="220" style="text-anchor:middle;font-size:20px;fill:rgb(0,0,0)" >May</text>
<rect x="310" y="168" width="50" height="32" style="fill:rgb(77,200,232)" />
<text x="333" y="220" style="text-anchor:middle;font-size:20px;fill:rgb(0,0,0)" >Jun</text>
<rect x="370" y="55" width="50" height="145" style="fill:rgb(77,200,232)" />
<text x="393" y="220" style="text-anchor:middle;font-size:20px;fill:rgb(0,0,0)" >Jul</text>
<rect x="430" y="44" width="50" height="156" style="fill:rgb(77,200,232)" />
<text x="453" y="220" style="text-anchor:middle;font-size:20px;fill:rgb(0,0,0)" >Aug</text>
<rect x="490" y="188" width="50" height="12" style="fill:rgb(77,200,232)" />
<text x="513" y="220" style="text-anchor:middle;font-size:20px;fill:rgb(0,0,0)" >Sep</text>
<rect x="550" y="0" width="50" height="200" style="fill:rgb(77,200,232)" />
<text x="573" y="220" style="text-anchor:middle;font-size:20px;fill:rgb(0,0,0)" >Oct</text>
<rect x="610" y="31" width="50" height="169" style="fill:rgb(77,200,232)" />
<text x="633" y="220" style="text-anchor:middle;font-size:20px;fill:rgb(0,0,0)" >Nov</text>
<rect x="670" y="169" width="50" height="31" style="fill:rgb(77,200,232)" />
<text x="693" y="220" style="text-anchor:middle;font-size:20px;fill:rgb(0,0,0)" >Dec</text>
<line x1="0" y1="87" x2="730" y2="87" style="stroke:rgb(250,120,120);stroke-width:2px;opacity:0.8" />
<rect x="0" y="0" width="730" height="87" style="fill:rgb(250,120,120);opacity:0.3" />
<text x="365" y="85" style="text-anchor:middle;font-size:30px;fill:black" >Critical consumption</text>
<line x1="0" y1="200" x2="730" y2="200" style="stroke:rgb(0,0,0);stroke-width:3px" />
<text x="365" y="250" style="text-anchor:middle;font-size:20px;fill:rgb(250,0,0);font-family: cursive;" >Energy consumption</text>
<circle cx="150" cy="300" r="50" style="fill:none;stroke:black;stroke-width:2" />
<circle cx="120" cy="290" r="10" style="fill:black" />
<circle cx="180" cy="290" r="10" style="fill:black" />
<path d="M130,330 A120,120 320 0 0 170,330" style="stroke:black;stroke-width:2" />
<line x1="150" y1="350" x2="150" y2="450" style="stroke:black;stroke-width:2" />
<line x1="150" y1="380" x2="200" y2="420" style="stroke:black;stroke-width:2" />
<line x1="150" y1="380" x2="100" y2="420" style="stroke:black;stroke-width:2" />
<line x1="150" y1="450" x2="200" y2="500" style="stroke:black;stroke-width:2" />
<line x1="150" y1="450" x2="100" y2="500" style="stroke:black;stroke-width:2" />
<rect x="220" y="415" width="20" height="50" style="fill:black" />
<rect x="200" y="415" width="20" height="15" style="fill:black" />
</svg>
